<svg width="167" height="40" viewBox="0 0 167 40" fill="none" xmlns="http://www.w3.org/2000/svg">
<path d="M16.3414 25.933H8.03869C8.03869 25.933 6.79603 25.8007 6.74309 24.5314C6.69016 23.2621 7.58922 22.945 7.58922 22.945C7.58922 22.945 9.36094 23.4739 11.2117 23.4739C13.0625 23.4739 20.3341 22.707 20.3341 16.414C20.3341 13.5552 18.0868 11.919 18.0868 11.919L22.1075 12.9963L22.0397 8.86525L16.2357 9.93604C16.2357 9.93604 13.2216 8.83885 11.0796 8.83885C9.63854 8.83885 2.20806 9.41004 1.93713 15.9335C1.7458 20.539 5.6327 22.2577 5.60644 22.2577C5.5799 22.2577 1.90446 24.5317 1.87806 27.361C1.8526 30.085 4.96324 30.9214 5.19457 30.9798C5.20444 30.9802 5.20977 30.9814 5.20951 30.9835L5.19457 30.9798C4.89604 30.9708 0.13234 31.8659 0.132874 35.2143C0.133274 38.4137 5.42124 39.9737 11.0268 40.0001C16.6324 40.0266 22.7933 38.44 22.7933 31.8032C22.7933 25.1665 16.3414 25.933 16.3414 25.933ZM11.0268 11.3507C13.6049 11.3374 13.6181 14.008 13.6313 15.1317V17.1283C13.6313 17.1283 13.975 20.7244 11.2515 20.7376C8.52815 20.7508 8.60749 18.6486 8.60749 17.1283V14.7749C8.60749 14.7749 8.44895 11.3639 11.0268 11.3507ZM11.0401 37.4617C7.20603 37.4617 5.83124 35.9017 5.83124 34.3945C5.83124 32.8873 6.7699 32.266 6.7699 32.266L15.0857 32.2528C15.0857 32.2528 16.7385 32.4376 16.7385 33.8921C16.7384 36.1271 14.8741 37.4617 11.0401 37.4617ZM32.1271 8.98405L22.7667 10.4384V12.263L25.1728 13.4264V25.1929C25.1728 25.1929 25.2979 30.9712 30.9637 31.0366C35.5645 31.0894 37.8649 27.8899 37.8649 27.8899V30.9836L46.9343 29.8994V28.2338L44.6167 26.8958V9.03738L35.3001 10.4918V12.237L37.7591 13.4796V26.0395C37.7591 26.0395 37.1246 26.5683 35.0886 26.7269C33.0527 26.8855 32.1272 24.9554 32.1272 24.9554L32.1271 8.98405ZM48.8479 10.4927C48.8479 10.4927 53.3165 8.86604 56.9998 8.86604C60.6831 8.86604 66.0118 10.1187 66.0118 14.6995V27.3947L68.2928 28.5912V30.1058C68.2928 30.1058 66.6663 30.9844 64.2731 30.9844C61.8798 30.9844 59.8045 29.7691 59.8045 27.9368C59.2843 27.9462 59.095 30.9472 53.4849 30.9472C46.941 30.9472 47.4458 25.1511 47.4458 25.039C47.4458 24.9269 47.2575 20.7122 52.0265 19.8037C56.7381 18.9064 58.9257 18.551 58.9257 18.551L58.9027 14.2881C58.9027 14.2881 58.5143 11.7079 56.2893 11.7266C54.0644 11.7454 54.083 11.764 54.083 11.764L52.5126 16.0456H48.8293L48.8479 10.4927ZM59.1031 26.4693V20.7108C59.1031 20.7108 54.41 20.2901 54.4008 24.0481C54.394 26.8774 56.172 27.2078 56.981 27.2078C57.9067 27.1486 58.521 26.8229 59.1031 26.4693ZM77.8655 8.79125L68.7229 10.2308V12.1379L71.0788 13.2596V27.4132L68.8912 28.5351V30.3299H80.9323V28.6098L78.0529 27.4506L78.0717 15.7649C78.0717 15.7649 79.9039 15.0357 81.7548 15.0357C83.6059 15.0357 84.5222 15.2413 84.5222 15.2413V9.12738C84.5222 9.12738 80.6038 7.90005 77.8286 13.3716C77.8282 13.3907 77.8655 8.79125 77.8655 8.79125ZM95.9829 1.8173V3.66822L98.2826 4.77127V9.78217C98.2826 9.78217 96.6749 9.01551 94.7302 9.01551C92.7857 9.01551 84.8394 9.31471 84.6152 20.2338C84.3906 31.1528 92.8792 31.0032 92.8045 31.0032C92.7298 31.0032 96.6934 31.1155 98.4883 28.797C98.479 28.797 98.4695 30.9939 98.4695 30.9939L107.454 29.9002V28.1239L105.294 27.0209L105.275 0.359172L95.9829 1.8173ZM98.2734 12.643V26.8339C98.2734 26.8339 97.5321 27.2079 96.1513 27.2079C93.9056 27.2079 92.0056 25.6798 92.0191 20.7574C92.0312 16.4573 92.6586 13.0788 94.5394 12.1942C96.4195 11.3098 98.1861 12.5244 98.2734 12.643ZM117.692 3.84128C117.692 5.95047 115.98 7.66205 113.871 7.66205C111.762 7.66205 110.05 5.95047 110.05 3.84128C110.05 1.73223 111.762 0.0205078 113.871 0.0205078C115.98 0.0205078 117.692 1.7321 117.692 3.84128ZM117.533 8.87831L108.041 10.2268V12.0514L110.526 13.2677V27.4403L108.252 28.4715V30.4019H119.675V28.551L117.507 27.4931L117.533 8.87831ZM121.867 10.4692C121.867 10.4692 126.335 8.84271 130.019 8.84271C133.702 8.84271 139.031 10.0954 139.031 14.6761V27.3714L141.312 28.568V30.0823C141.312 30.0823 139.685 30.9612 137.292 30.9612C134.899 30.9612 132.823 29.7459 132.823 27.9135C132.303 27.9228 132.114 30.9238 126.504 30.9238C119.96 30.9238 120.465 25.1278 120.465 25.0155C120.465 24.9034 120.277 20.6889 125.045 19.7805C129.757 18.883 131.945 18.5277 131.945 18.5277L131.922 14.2648C131.922 14.2648 131.533 11.6846 129.308 11.7034C127.083 11.7222 127.102 11.7407 127.102 11.7407L125.531 16.0223H121.848L121.867 10.4692ZM132.122 26.4458V20.6872C132.122 20.6872 127.429 20.2666 127.42 24.0246C127.413 26.8537 129.191 27.1843 130 27.1843C130.925 27.1253 131.54 26.7991 132.122 26.4458ZM150.982 8.82551L141.648 10.3063V12.0779L144.16 13.2677V27.546L141.859 28.4715V30.4547H153.282V28.498L151.167 27.4931V13.6908C151.167 13.6908 152.304 13.1619 153.97 13.1619C155.636 13.1619 156.931 13.9023 156.931 15.5416V27.4931L154.587 28.6448L154.578 30.4016H166.212V28.5244L163.938 27.5726V14.3255C163.938 14.3255 164.097 9.03724 158.729 9.03724C153.361 9.03724 151.008 11.8664 151.008 11.8664L150.982 8.82551Z" fill="white"/>
</svg>
