<svg width="95" height="90" viewBox="0 0 95 90" fill="none" xmlns="http://www.w3.org/2000/svg">
<path fill-rule="evenodd" clip-rule="evenodd" d="M34.9575 0C36.705 0.00747592 37.6218 1.37499 37.9492 1.82528C38.1015 2.28016 38.2279 2.73791 38.3881 3.67355C38.4111 3.86103 38.4214 3.97547 38.4214 4.16754C38.4214 4.93066 38.2353 5.36599 37.9533 6.0762C37.7091 6.69095 37.6017 7.07797 37.1519 7.56621C36.4953 8.27642 36.03 8.49092 35.8387 8.75086C35.7514 8.87335 35.0764 9.4996 34.8816 9.78598C34.6869 10.0758 33.9275 11.261 33.6213 11.9091C33.3702 12.4405 33.3967 13.3232 32.5074 14.5533C32.1455 15.0571 31.8359 15.3061 31.6423 15.8973C31.4475 16.4936 31.451 16.887 31.1339 17.4247C30.5508 18.4069 30.0165 18.8313 29.5351 19.8624C29.0733 20.8596 29.0549 21.5048 28.7458 22.552C28.4178 23.6481 27.6659 24.0834 27.5515 25.2146C27.4901 25.7454 27.6119 26.0582 27.5515 26.5976C27.3763 28.2239 26.2504 28.8053 25.4444 30.2338C25.1514 30.7646 25.1514 31.1545 25.0515 31.7583C24.9188 32.6019 24.7769 33.0608 24.5098 33.874C24.0554 35.2415 24.0944 36.0972 23.8267 37.5113C23.6504 38.4389 23.5447 38.9697 23.3919 39.8973C23.3155 40.3826 23.0288 40.6196 23.0288 41.117L23.0334 41.5903C23.0334 41.9123 22.8341 42.0676 22.8163 42.3931C22.7588 43.1228 22.629 43.5237 22.529 44.2454C22.0339 47.889 21.3577 49.8529 20.4759 53.4218C20.156 54.7122 20.1634 55.48 19.8659 56.767C19.6441 57.7268 19.4344 58.2604 19.3586 59.2467C19.3012 60.0294 19.3092 60.4647 19.2546 61.2474C19.1897 62.145 19.2931 62.6569 19.2931 63.558C19.2966 64.0779 19.2512 64.3723 19.1891 64.8876C18.8192 67.825 18.1792 69.9758 18.1138 72.421V74.026L17.865 76.355V76.7524C17.8725 77.99 16.7322 79.1936 15.6332 79.1936C14.1402 79.1896 13.6634 77.6242 13.4233 76.0572C13.2739 75.0715 13.1142 74.5068 12.9729 73.5165C12.8965 72.9558 12.6294 72.7068 12.5036 72.1616C12.4651 71.9707 12.4766 71.8563 12.4496 71.6883C12.1245 70.1638 11.7761 68.6442 11.4046 67.1303C11.0347 65.6708 10.6377 62.9519 10.5763 62.8869C10.5005 62.8098 10.3092 61.7551 10.2259 60.7171C10.1765 60.1058 9.95069 59.46 9.90474 59.1898C9.86337 58.8901 9.97712 58.7199 9.92829 58.422C9.79099 57.5962 9.74446 57.1224 9.56121 56.3127C9.37853 55.534 9.2826 55.1246 9.15277 54.3074V53.979C9.04994 52.5506 8.59554 50.8742 8.34336 48.8793C8.22961 47.9816 8.275 47.4543 8.19515 46.5531C8.12621 45.8355 8.07279 44.8642 7.73788 44.7313C7.27601 44.5513 7.12665 45.2161 6.95431 45.5634C6.5769 46.3202 6.3563 46.7406 6.0392 47.5313C5.59227 48.6619 5.43545 49.3342 4.92533 50.4418C4.35661 51.6678 4.14981 52.3976 3.63164 53.6501C3.22723 54.6363 2.58268 55.5179 1.64402 55.5421C0.850115 55.5599 0.0407022 54.6777 0.00336243 53.9451C-0.0357008 53.3603 0.270486 52.0497 0.667437 50.9806C1.08679 49.8621 1.40275 48.9794 1.64746 48.0667C1.90367 47.0926 2.06395 46.8171 2.33107 45.782C2.67057 44.4369 3.19333 43.5432 3.56328 42.2062C3.99815 40.6288 4.42555 39.9065 4.94141 38.3526C5.18154 37.6229 5.3533 37.0996 5.55149 36.3508C5.64685 36 6.01335 34.9407 6.23854 34.0206C6.41375 33.3024 6.55104 32.5381 6.74234 32.1982C7.11976 31.6255 7.77177 31.48 8.46629 31.4846C9.92829 31.4846 10.9164 32.2483 10.9313 33.7003C10.9434 34.6664 10.8015 35.8131 10.9807 36.7936C10.9928 37.463 11.091 37.199 11.1904 37.8517C11.5919 40.4154 11.7706 40.7438 11.9768 42.764C12.2319 43.9291 12.4117 46.0304 12.4117 46.0304C12.4117 46.8522 12.7167 48.2651 12.9034 49.0639C13.0786 49.85 12.8959 50.164 13.186 51.3929C13.4032 52.3401 13.5411 53.5449 13.5681 53.8686C13.5985 54.2855 13.7013 55.0803 13.7749 55.4926C13.8231 55.7934 13.8852 56.4432 14.0799 57.4525C14.312 58.1431 14.2356 58.7205 14.5567 59.4577C14.6366 59.6527 14.7543 59.866 14.9686 59.866C15.1513 59.8706 15.3236 59.5831 15.4488 59.3352C15.8762 58.5325 15.8383 58.0252 16.148 57.1655C16.5374 56.0878 16.7052 55.3736 16.8729 54.3235C17.155 53.1205 17.4451 50.8363 17.9868 48.6476C18.5366 46.4353 18.7508 45.1638 19.1736 42.9325C19.4678 41.4045 19.7803 40.481 20.0445 39.0335C20.2002 38.3457 20.4024 37.9639 20.3989 37.2531C20.4564 36.8436 20.5747 36.5883 20.654 36.1605C20.9441 34.6434 21.2078 33.5588 21.3376 32.2632V31.9044C21.4054 31.6324 21.5054 31.0021 21.8449 30.3338C22.1999 29.2527 22.5428 28.6794 23.1495 27.7167C24.0508 26.2842 23.9164 25.1806 24.4506 23.5687C24.5276 23.4462 24.9274 22.5641 25.0153 21.8728C25.0992 21.7854 25.3249 21.296 25.4197 20.7261C25.6265 20.4904 26.5077 16.7725 27.1253 15.2722C27.1557 14.9053 27.4694 14.4395 27.6371 13.9196C27.7865 13.4273 28.6637 11.1846 29.0716 9.81359C29.4157 8.706 29.3082 7.99464 29.7626 6.93651C30.2503 5.80592 30.5491 4.54134 30.6668 3.91566C30.946 3.2204 31.216 2.86098 31.648 2.24278C32.2655 1.35314 32.6625 0.77577 33.6695 0.377821C34.1406 0.197824 34.4617 0 34.9575 0ZM64.626 18.3126C65.7324 18.3154 66.8577 19.0573 66.8158 20.1654C66.7779 21.0511 66.4993 21.2276 66.3074 21.5479C66.007 22.0448 66.1224 22.8734 64.4347 23.0379C63.5448 23.0333 62.4465 22.0137 62.4465 20.8636C62.4436 19.5651 63.3248 18.3126 64.626 18.3126ZM75.597 22.1057C77.1417 22.1098 77.9241 23.6297 77.8827 25.314C77.8793 25.471 77.8253 25.5556 77.8253 25.7155C77.8253 26.1433 77.8868 26.3802 77.8868 26.8081C77.8868 27.2055 77.7489 28.263 77.7489 28.263C77.7489 29.0842 77.5007 29.5356 77.5007 30.3563C77.5007 30.5892 77.5691 30.7232 77.5691 30.9561C77.5691 31.4259 77.5007 31.6893 77.4622 32.1591C77.3669 33.3121 78.1487 33.3892 78.4078 33.92C78.9622 34.1765 79.2367 34.6572 79.8698 34.6572C80.1593 34.6613 81.0492 34.2834 81.2881 34.2023C82.4451 33.6911 83.1172 33.4162 84.2311 32.8239C85.9556 31.9141 86.6656 31.1769 88.3488 30.1234C89.4587 29.4126 90.4927 28.7098 91.8134 28.7133C92.9083 28.7133 93.9348 29.5305 94.2433 30.2861C94.3881 30.6536 94.5978 31.1234 94.5978 31.6082C94.5978 31.7836 94.6753 31.8756 94.6753 32.0481C94.6753 32.3006 94.6673 32.449 94.6403 32.7008C94.5604 33.4156 94.5754 33.8544 94.3163 34.5192C94.0457 35.2064 93.5839 35.4554 92.9686 35.8643C92.2862 36.3301 91.7278 36.5521 90.8931 36.5521H90.4542C89.8694 36.5486 89.6115 36.3692 89.0238 36.3692C88.1006 36.3692 87.5348 36.743 86.7145 37.1553C85.7339 37.6401 84.62 38.275 84.2799 38.4395C83.3183 38.8897 81.3571 39.9329 79.5561 41.01C75.8624 43.2177 73.3101 44.3984 69.7329 46.774C68.3485 47.6987 67.9716 48.1461 66.5016 48.9207C65.5974 49.4061 64.9724 49.5015 64.1049 50.0484C62.636 50.9714 61.845 51.6212 60.6478 52.8864C59.592 53.7841 58.076 55.35 56.7903 56.0027C55.5989 56.6106 54.2334 57.7377 53.3826 58.7654C53.2074 58.9793 52.375 59.5101 52.2642 60.7672L52.5359 64.2159C52.5393 64.8732 52.2343 65.3056 52.2768 66.0803L52.3136 68.5128C52.3182 69.426 52.6232 69.5215 52.6232 70.2812L52.6502 71.2519C52.6502 72.3986 53.1035 72.9938 53.1224 74.1324C53.0127 75.3665 53.1379 75.9088 53.1684 77.0848C53.2034 78.2315 53.3706 78.9222 53.6498 80.0303C53.852 80.8596 53.7831 81.3104 54.1444 82.0707C54.6683 83.2053 54.9004 83.835 55.4616 84.9552C55.835 85.7034 56.0654 86.3182 56.0654 87.1555C56.0688 88.7898 54.7636 89.8094 53.0127 89.9934C52.8559 90.0118 51.5168 90.0164 50.9705 89.6536C50.288 89.1837 50.0967 88.297 50.0548 87.4758C50.0054 86.3337 50.0313 85.9064 49.8417 84.7407C49.8532 84.1375 49.6958 83.8051 49.5401 83.2312C49.1926 81.9298 48.949 81.1845 48.9174 79.8406C48.8835 78.113 49.0219 77.14 49.0219 75.4091C48.949 74.2675 48.8605 73.6217 48.7232 72.4871C48.5773 71.364 48.3607 70.7102 48.2275 69.5916C47.9988 67.7014 47.9988 66.6421 47.8908 64.7403C47.8569 64.2734 47.8569 64.0255 47.8075 63.5632C47.7995 62.9904 47.5553 62.7155 47.1779 62.7115C46.3949 62.7115 46.064 63.2843 45.3845 63.6713C44.4406 64.1981 43.9564 64.7064 43.159 65.4356C41.5488 66.6197 40.8767 67.2988 39.575 68.7164C38.7179 69.6486 38.3134 70.2788 37.3621 71.115C36.5952 71.7873 36.0955 72.1162 35.3636 72.823C34.7598 73.3998 34.5542 73.865 34.0929 74.5729C33.6764 75.1997 33.2806 75.4505 32.7119 75.9479C30.6467 77.7663 30.2498 77.6978 27.7015 80.9257C26.953 81.8757 26.4009 82.0063 26.213 82.3191C26.1757 82.3835 25.3318 83.0759 25.0268 83.3784C24.6069 83.7982 23.9617 84.417 23.5952 84.7074C22.7835 85.3601 22.4894 85.9444 21.707 86.6362C20.8177 87.4148 20.2605 87.8933 19.1271 88.2671C18.6003 88.4396 18.3952 88.6299 17.834 88.6299C16.6742 88.6299 15.8837 87.5298 15.8808 86.3688C15.8808 85.6321 16.2473 85.3566 16.6822 84.7683C17.5215 83.6297 18.0896 83.0379 19.1507 82.1167C20.8913 80.5858 21.5059 79.2942 23.4361 78.0072C24.1077 77.561 25.7937 76.6288 26.2515 76.2763C27.0275 75.6795 27.7298 74.9924 28.3437 74.2296C28.6143 73.8811 28.9193 73.7897 29.179 73.4302C29.4536 73.0449 29.5455 72.7626 29.87 72.4106C30.6019 71.617 31.1591 71.2921 32.0484 70.6699C33.2048 69.8596 33.8614 69.5002 34.9557 68.6025C35.7347 67.9676 36.0742 67.4173 36.6963 66.6346C37.9326 65.0917 39.0924 64.6794 40.6952 63.5108C41.4391 62.9685 41.6763 62.4447 42.256 61.7304C42.5731 61.3359 43.6324 59.973 44.6911 59.0402C45.396 58.418 45.8279 58.0971 46.5414 57.4778C47.769 56.4156 48.201 56.798 48.1706 55.1706C48.1706 54.8876 48.2458 54.4989 47.8259 54.5294C47.4376 54.5645 47.3347 54.8922 47.0481 55.1476C46.4443 55.683 46.0721 55.9469 45.2655 55.9343C43.6214 55.9044 42.58 54.4345 42.53 54.3344C42.0635 53.4137 41.3121 50.6137 41.2817 49.7505C41.2817 49.7505 41.2288 48.5883 41.2817 47.9281C41.3431 47.0989 41.5568 45.5864 42.0721 44.6853C42.3548 44.1884 42.6098 42.2171 42.9574 40.3993C43.0826 39.738 43.4491 39.0657 43.6634 38.4239C43.9684 37.4992 44.1166 36.9374 44.6739 36.1357C45.6591 34.7262 46.2042 33.1327 47.9253 33.1408C48.3102 33.1408 48.4865 33.2362 48.8341 33.4041C49.0553 33.5232 49.3028 33.5646 49.4367 33.771C49.5545 33.9585 49.4447 34.1259 49.624 34.2633C49.948 34.5158 50.0962 35.0316 50.0962 35.5434C50.0962 35.8367 50.0962 36.0092 50.0623 36.2962C49.933 37.4572 49.231 37.9265 48.5015 38.8397C47.7949 39.7299 47.6231 40.0198 47.1773 41.0675C46.8149 41.9192 46.7264 42.8008 46.5477 43.7106C46.3381 44.7836 46.1537 45.7388 46.0813 46.4807C46.0554 46.7165 46.0284 46.9154 46.0284 47.1604C46.0284 47.4313 46.2306 47.9316 46.5006 47.9316C46.928 47.9316 47.3106 47.4203 47.4554 47.0155C47.7989 46.0753 48.0626 45.6135 48.2993 44.6387C48.6462 43.2482 48.8714 42.6335 49.4131 41.4528C50.0876 39.9945 50.1571 39.0657 50.55 37.8701C51.0233 36.4302 51.4318 35.1006 52.9501 35.1087C53.4349 35.1087 53.7515 35.1121 54.1708 35.3571C55.1221 35.8879 55.3576 36.7925 55.3576 37.8822C55.3473 38.2152 55.3398 38.413 55.3048 38.7454C54.9538 42.0038 54.1438 43.7612 53.8767 47.042C53.8399 47.5043 53.8767 47.7792 53.8365 48.2421C53.767 49.0639 53.5797 49.5096 53.5843 50.3388C53.5843 50.7098 53.6641 50.9151 53.7716 51.2635C53.8244 51.4493 53.8859 51.6673 54.08 51.6673C54.458 51.6673 54.6189 51.3964 54.9348 51.194C55.5495 50.8087 55.9648 50.6787 56.5686 50.2813C57.5032 49.6666 58.1059 49.4181 59.0066 48.7608C59.9269 48.0886 60.8679 47.0489 61.8215 46.4307C62.7572 45.8257 62.875 45.9798 63.8746 45.3501C65.0884 44.5812 65.8203 44.185 66.9657 43.3207C67.6522 42.7933 67.6792 42.423 68.6724 41.8657C69.626 41.3234 70.1793 41.033 71.1059 40.4482C71.6016 40.1354 71.8498 39.895 72.3771 39.65C72.816 39.4441 73.2509 39.2451 73.2509 38.7598C73.2463 38.2744 72.9458 37.9921 72.6965 37.5792C72.3421 36.984 72.2772 36.659 72.2737 35.9667C72.2737 35.6233 72.2617 35.3634 72.3162 35.027C72.5328 33.679 73.0556 32.9688 73.0521 31.6053L73.0935 31.1614C73.0286 31.1113 72.9947 31.051 72.9108 31.051C72.7201 31.051 72.6092 31.2959 72.4915 31.4409C72.1393 31.8457 71.9417 32.0982 71.6016 32.5105C71.1472 33.0488 70.8542 33.3386 70.548 33.966C70.3694 34.3093 70.3998 34.5537 70.2585 34.9131C69.9454 35.6964 69.7208 36.1616 69.4606 36.9644C68.7471 39.1192 68.7977 41.9721 66.5234 41.9681C65.031 41.9647 63.8171 40.7771 63.8137 39.2825C63.8137 38.4199 64.0584 37.1065 64.1647 37.0098C64.5306 36.701 64.2365 35.8764 64.4507 35.6843C64.63 35.5359 64.6989 34.7791 64.6989 34.0384C64.6989 33.694 64.7943 33.4916 64.7943 33.1517L64.8322 32.5985C64.8322 31.9757 65.0275 31.6513 65.1183 31.0395C65.3021 29.7985 65.6255 29.496 65.7283 29.1411C65.7858 28.9353 65.7709 28.8392 65.8438 28.6368C66.2431 27.5108 66.1523 26.8414 67.2507 25.9139C67.6447 25.5205 67.8923 25.1007 68.449 25.1007C69.7346 25.1036 70.0902 25.8379 70.4217 25.8069C71.0243 25.7465 71.2236 25.2841 71.6516 24.8638C72.9487 23.6182 73.7805 22.1011 75.597 22.1057ZM61.2252 30.0515C62.4505 30.0515 63.6643 30.5064 63.631 32.0752C63.6155 33.0045 63.1306 33.4548 62.8021 34.3145C62.5269 35.0247 62.6688 35.5055 62.4792 36.2433C62.1874 37.3399 61.7272 37.2255 61.7916 39.0812C61.8151 40.4723 61.8105 41.2585 61.7646 42.649C61.7106 43.986 60.6122 44.9291 59.2726 44.9493C58.1093 44.9717 56.9184 43.5892 56.9219 42.4241C56.9219 41.5914 57.1586 41.144 57.2091 40.3113C57.247 39.5856 57.1936 39.1773 57.243 38.4556C57.3148 37.2255 57.6515 36.5682 58.0329 35.3956C58.2236 34.8154 58.2116 34.437 58.4333 33.8677C58.751 33.035 58.8417 32.5645 59.334 31.7594C59.5466 30.8491 60.2302 30.0469 61.2252 30.0515ZM27.8112 34.3795C28.5476 34.3795 29.0733 34.7423 29.4599 35.3795C29.8373 36.0069 30.1573 36.3957 30.1573 37.1295C30.1573 37.2594 30.1194 37.3325 30.1194 37.4578C30.1268 38.7178 29.0733 39.7121 27.8141 39.7121C26.5594 39.7029 25.6432 38.417 25.6466 37.3169C25.6466 36.877 25.9178 36.5981 25.9637 36.1168C26.0821 34.9827 26.807 34.3749 27.8112 34.3795ZM37.0221 37.7781C38.3111 37.7827 38.8839 38.8449 39.5175 39.9709C40.1397 41.0635 40.8342 41.6558 40.8342 42.9009C40.8342 44.1539 40.0173 44.7808 39.0522 45.5784C38.5059 46.0333 38.0291 45.9378 37.3116 46.1558C36.983 46.2553 36.9152 46.7015 36.8727 47.0989C36.7969 47.8258 36.7429 48.2341 36.7279 48.9558C36.6975 50.1634 36.74 50.8466 36.7429 52.0491C36.6176 52.7185 36.7279 53.1688 36.4154 53.7617C35.9157 54.7123 35.1246 55.1827 34.0498 55.1781C32.8015 55.1781 31.733 54.1895 31.7554 52.937C31.7594 52.5655 31.9169 51.4395 31.8973 50.4769C31.8629 49.0173 31.748 48.1886 31.7445 46.7262C31.7405 45.9965 32.0691 45.6066 32.0691 44.8693V44.254C32.0495 43.7192 32.5717 43.2344 33.1186 42.7991C33.9005 42.1723 34.2285 41.4735 34.595 40.5379C35.2016 38.9927 35.5371 37.7781 37.0221 37.7781ZM27.8215 43.5582C28.4477 43.5662 28.878 43.7911 29.245 44.2885C29.8402 45.0982 30.2107 45.6986 30.2142 46.6986C30.2142 46.916 30.1992 47.0345 30.1797 47.2484C30.0815 48.0696 29.8178 48.5136 29.3789 49.2117C29.1037 49.6551 29.0968 49.999 28.878 50.4843C28.4661 51.3665 28.2225 52.1842 28.188 52.887C28.1455 54.335 28.1266 55.1522 28.161 56.5996C28.176 57.3225 28.3449 57.7228 28.3449 58.4404C28.3523 59.946 27.4711 61.4734 25.9672 61.4734C24.4788 61.478 23.0598 59.506 23.1357 57.4277C23.1701 56.6796 23.2885 56.2672 23.4252 55.534C23.6469 54.3845 23.8262 53.0813 24.0364 52.5845C24.3219 51.9272 24.3035 51.6908 24.357 51.489L24.5287 50.3015C24.5287 49.8149 24.7189 49.7126 24.7993 49.2347C24.9636 48.2117 25.0814 47.6418 25.41 46.6526C25.6081 46.0419 25.8873 45.7636 26.097 45.1638C26.4055 44.2989 26.9064 43.5582 27.8215 43.5582Z" fill="white"/>
</svg>
